{"asset":{"version":"2.0","generator":"babylon.js glTF exporter for 3dsmax 2019 v20200615.2"},"scene":0,"scenes":[{"nodes":[0]}],"nodes":[{"children":[1,2],"scale":[100,100,100],"name":"root"},{"mesh":0,"name":"Text001"},{"name":"Default light"}],"meshes":[{"primitives":[{"attributes":{"POSITION":1,"NORMAL":2},"indices":0}],"name":"Text001"}],"accessors":[{"bufferView":0,"componentType":5123,"count":13392,"type":"SCALAR","name":"accessorIndices"},{"bufferView":1,"componentType":5126,"count":13392,"max":[91.89,77.79548,1],"min":[-91.89002,27.90547,0],"type":"VEC3","name":"accessorPositions"},{"bufferView":1,"byteOffset":160704,"componentType":5126,"count":13392,"type":"VEC3","name":"accessorNormals"}],"bufferViews":[{"buffer":0,"byteLength":26784,"name":"bufferViewScalar"},{"buffer":0,"byteOffset":26784,"byteLength":321408,"byteStride":12,"name":"bufferViewFloatVec3"}],"buffers":[{"uri":"data:application/octet-stream;base64,","byteLength":348192}]}